<svg id="fireworks_2_" data-name="fireworks (2)" xmlns="http://www.w3.org/2000/svg" width="37.412" height="37.412" viewBox="0 0 37.412 37.412">
  <g id="Сгруппировать_41" data-name="Сгруппировать 41" transform="translate(10.83 11.48)">
    <g id="Сгруппировать_40" data-name="Сгруппировать 40">
      <path id="Контур_101" data-name="Контур 101" d="M30.331,21.3a1.1,1.1,0,0,0-.885-.745l-4.019-.583-1.87-3.716a1.1,1.1,0,0,0-1.965,0L19.72,19.976l-4.018.583a1.1,1.1,0,0,0-.608,1.869L18,25.336l-.686,4a1.1,1.1,0,0,0,1.589,1.155l3.668-1.889,3.668,1.889a1.1,1.1,0,0,0,1.589-1.155l-.687-4,2.909-2.908A1.1,1.1,0,0,0,30.331,21.3Z" transform="translate(-14.764 -15.649)" fill="#fff"/>
    </g>
  </g>
  <g id="Сгруппировать_43" data-name="Сгруппировать 43" transform="translate(17.61 4.384)">
    <g id="Сгруппировать_42" data-name="Сгруппировать 42">
      <path id="Контур_102" data-name="Контур 102" d="M25.1,5.977a1.1,1.1,0,0,0-1.1,1.1V9.784a1.1,1.1,0,0,0,2.192,0V7.073A1.1,1.1,0,0,0,25.1,5.977Z" transform="translate(-24.006 -5.977)" fill="#fff"/>
    </g>
  </g>
  <g id="Сгруппировать_45" data-name="Сгруппировать 45" transform="translate(17.61 27.054)">
    <g id="Сгруппировать_44" data-name="Сгруппировать 44">
      <path id="Контур_103" data-name="Контур 103" d="M25.1,36.88a1.1,1.1,0,0,0-1.1,1.1v4.3a1.1,1.1,0,0,0,2.192,0v-4.3A1.1,1.1,0,0,0,25.1,36.88Z" transform="translate(-24.006 -36.88)" fill="#fff"/>
    </g>
  </g>
  <g id="Сгруппировать_47" data-name="Сгруппировать 47" transform="translate(17.61)">
    <g id="Сгруппировать_46" data-name="Сгруппировать 46">
      <circle id="Эллипс_29" data-name="Эллипс 29" cx="1.096" cy="1.096" r="1.096" fill="#fff"/>
    </g>
  </g>
  <g id="Сгруппировать_49" data-name="Сгруппировать 49" transform="translate(17.61 35.22)">
    <g id="Сгруппировать_48" data-name="Сгруппировать 48">
      <circle id="Эллипс_30" data-name="Эллипс 30" cx="1.096" cy="1.096" r="1.096" fill="#fff"/>
    </g>
  </g>
  <g id="Сгруппировать_51" data-name="Сгруппировать 51" transform="translate(4.384 17.61)">
    <g id="Сгруппировать_50" data-name="Сгруппировать 50">
      <path id="Контур_104" data-name="Контур 104" d="M9.311,24.006H7.073a1.1,1.1,0,0,0,0,2.192H9.311a1.1,1.1,0,0,0,0-2.192Z" transform="translate(-5.977 -24.006)" fill="#fff"/>
    </g>
  </g>
  <g id="Сгруппировать_53" data-name="Сгруппировать 53" transform="translate(28.467 17.61)">
    <g id="Сгруппировать_52" data-name="Сгруппировать 52">
      <path id="Контур_105" data-name="Контур 105" d="M42.791,24.006H39.9a1.1,1.1,0,0,0,0,2.192h2.889a1.1,1.1,0,1,0,0-2.192Z" transform="translate(-38.806 -24.006)" fill="#fff"/>
    </g>
  </g>
  <g id="Сгруппировать_55" data-name="Сгруппировать 55" transform="translate(0 17.61)">
    <g id="Сгруппировать_54" data-name="Сгруппировать 54">
      <circle id="Эллипс_31" data-name="Эллипс 31" cx="1.096" cy="1.096" r="1.096" fill="#fff"/>
    </g>
  </g>
  <g id="Сгруппировать_57" data-name="Сгруппировать 57" transform="translate(35.22 17.61)">
    <g id="Сгруппировать_56" data-name="Сгруппировать 56">
      <circle id="Эллипс_32" data-name="Эллипс 32" cx="1.096" cy="1.096" r="1.096" fill="#fff"/>
    </g>
  </g>
  <g id="Сгруппировать_59" data-name="Сгруппировать 59" transform="translate(6.044 25.913)">
    <g id="Сгруппировать_58" data-name="Сгруппировать 58">
      <path id="Контур_106" data-name="Контур 106" d="M13.373,35.646a1.1,1.1,0,0,0-1.55,0L8.561,38.908a1.1,1.1,0,0,0,1.55,1.55L13.373,37.2A1.1,1.1,0,0,0,13.373,35.646Z" transform="translate(-8.24 -35.325)" fill="#fff"/>
    </g>
  </g>
  <g id="Сгруппировать_61" data-name="Сгруппировать 61" transform="translate(23.883 5.676)">
    <g id="Сгруппировать_60" data-name="Сгруппировать 60">
      <path id="Контур_107" data-name="Контур 107" d="M40.089,8.059a1.1,1.1,0,0,0-1.55,0l-5.66,5.66a1.1,1.1,0,0,0,1.55,1.55l5.66-5.66A1.1,1.1,0,0,0,40.089,8.059Z" transform="translate(-32.558 -7.738)" fill="#fff"/>
    </g>
  </g>
  <g id="Сгруппировать_63" data-name="Сгруппировать 63" transform="translate(25.82 25.82)">
    <g id="Сгруппировать_62" data-name="Сгруппировать 62">
      <path id="Контур_108" data-name="Контур 108" d="M38.232,36.682l-1.163-1.163a1.1,1.1,0,1,0-1.55,1.55l1.163,1.163a1.1,1.1,0,0,0,1.55-1.55Z" transform="translate(-35.198 -35.198)" fill="#fff"/>
    </g>
  </g>
  <g id="Сгруппировать_65" data-name="Сгруппировать 65" transform="translate(7.868 7.868)">
    <g id="Сгруппировать_64" data-name="Сгруппировать 64">
      <path id="Контур_109" data-name="Контур 109" d="M16.065,14.515,12.6,11.047a1.1,1.1,0,0,0-1.55,1.55l3.468,3.468a1.1,1.1,0,0,0,1.55-1.55Z" transform="translate(-10.726 -10.726)" fill="#fff"/>
    </g>
  </g>
  <g id="Сгруппировать_67" data-name="Сгруппировать 67" transform="translate(30.835)">
    <g id="Сгруппировать_66" data-name="Сгруппировать 66">
      <path id="Контур_110" data-name="Контур 110" d="M47.515,2.192h-1.1V1.1a1.1,1.1,0,0,0-2.192,0v1.1h-1.1a1.1,1.1,0,1,0,0,2.192h1.1v1.1a1.1,1.1,0,0,0,2.192,0v-1.1h1.1a1.1,1.1,0,1,0,0-2.192Z" transform="translate(-42.035)" fill="#fff"/>
    </g>
  </g>
  <g id="Сгруппировать_69" data-name="Сгруппировать 69" transform="translate(28.643 28.643)">
    <g id="Сгруппировать_68" data-name="Сгруппировать 68">
      <path id="Контур_111" data-name="Контур 111" d="M44.527,41.239h-1.1v-1.1a1.1,1.1,0,1,0-2.192,0v1.1h-1.1a1.1,1.1,0,1,0,0,2.192h1.1v1.1a1.1,1.1,0,1,0,2.192,0v-1.1h1.1a1.1,1.1,0,1,0,0-2.192Z" transform="translate(-39.047 -39.047)" fill="#fff"/>
    </g>
  </g>
  <g id="Сгруппировать_71" data-name="Сгруппировать 71" transform="translate(0 30.835)">
    <g id="Сгруппировать_70" data-name="Сгруппировать 70">
      <path id="Контур_112" data-name="Контур 112" d="M5.48,44.227h-1.1v-1.1a1.1,1.1,0,1,0-2.192,0v1.1H1.1a1.1,1.1,0,0,0,0,2.192h1.1v1.1a1.1,1.1,0,1,0,2.192,0v-1.1h1.1a1.1,1.1,0,0,0,0-2.192Z" transform="translate(0 -42.035)" fill="#fff"/>
    </g>
  </g>
  <g id="Сгруппировать_73" data-name="Сгруппировать 73" transform="translate(2.192 2.192)">
    <g id="Сгруппировать_72" data-name="Сгруппировать 72">
      <path id="Контур_113" data-name="Контур 113" d="M8.468,5.18h-1.1v-1.1a1.1,1.1,0,0,0-2.192,0v1.1h-1.1a1.1,1.1,0,0,0,0,2.192h1.1v1.1a1.1,1.1,0,0,0,2.192,0v-1.1h1.1a1.1,1.1,0,0,0,0-2.192Z" transform="translate(-2.988 -2.988)" fill="#fff"/>
    </g>
  </g>
  <g id="Сгруппировать_75" data-name="Сгруппировать 75" transform="translate(4.384 22.067)">
    <g id="Сгруппировать_74" data-name="Сгруппировать 74">
      <circle id="Эллипс_33" data-name="Эллипс 33" cx="1.096" cy="1.096" r="1.096" fill="#fff"/>
    </g>
  </g>
  <g id="Сгруппировать_77" data-name="Сгруппировать 77" transform="translate(30.835 13.153)">
    <g id="Сгруппировать_76" data-name="Сгруппировать 76">
      <circle id="Эллипс_34" data-name="Эллипс 34" cx="1.096" cy="1.096" r="1.096" fill="#fff"/>
    </g>
  </g>
  <g id="Сгруппировать_79" data-name="Сгруппировать 79" transform="translate(13.153 4.384)">
    <g id="Сгруппировать_78" data-name="Сгруппировать 78">
      <circle id="Эллипс_35" data-name="Эллипс 35" cx="1.096" cy="1.096" r="1.096" fill="#fff"/>
    </g>
  </g>
  <g id="Сгруппировать_81" data-name="Сгруппировать 81" transform="translate(22.067 30.835)">
    <g id="Сгруппировать_80" data-name="Сгруппировать 80">
      <circle id="Эллипс_36" data-name="Эллипс 36" cx="1.096" cy="1.096" r="1.096" fill="#fff"/>
    </g>
  </g>
  <g id="Сгруппировать_83" data-name="Сгруппировать 83" transform="translate(30.835 22.067)">
    <g id="Сгруппировать_82" data-name="Сгруппировать 82">
      <circle id="Эллипс_37" data-name="Эллипс 37" cx="1.096" cy="1.096" r="1.096" fill="#fff"/>
    </g>
  </g>
  <g id="Сгруппировать_85" data-name="Сгруппировать 85" transform="translate(4.384 13.153)">
    <g id="Сгруппировать_84" data-name="Сгруппировать 84">
      <circle id="Эллипс_38" data-name="Эллипс 38" cx="1.096" cy="1.096" r="1.096" fill="#fff"/>
    </g>
  </g>
  <g id="Сгруппировать_87" data-name="Сгруппировать 87" transform="translate(22.067 4.384)">
    <g id="Сгруппировать_86" data-name="Сгруппировать 86">
      <circle id="Эллипс_39" data-name="Эллипс 39" cx="1.096" cy="1.096" r="1.096" fill="#fff"/>
    </g>
  </g>
  <g id="Сгруппировать_89" data-name="Сгруппировать 89" transform="translate(13.153 30.835)">
    <g id="Сгруппировать_88" data-name="Сгруппировать 88">
      <circle id="Эллипс_40" data-name="Эллипс 40" cx="1.096" cy="1.096" r="1.096" fill="#fff"/>
    </g>
  </g>
</svg>
